<svg version="1.1" id="Layer_1" xmlns="http://www.w3.org/2000/svg" x="0" y="0" viewBox="0 0 155.1 152.2" width="155" height="152" xml:space="preserve"><style>.st0{fill:#1d2e5c}</style><path class="st0" d="M152.4 90.2c1.5 0 2.7 1.2 2.7 2.7s-1.2 2.7-2.7 2.7-2.7-1.2-2.7-2.7 1.3-2.7 2.7-2.7m0 5c1.3 0 2.3-1 2.3-2.3s-1-2.3-2.3-2.3-2.3 1-2.3 2.3 1.1 2.3 2.3 2.3m-.9-3.5c0-.1.1-.2.2-.2h1.1c.5 0 .9.3.9.8s-.4.8-.6.8c.2.3.3.6.5.9.1.1 0 .2-.1.2h-.3c-.1 0-.1-.1-.2-.1l-.4-.9h-.6v.9c0 .1-.1.2-.2.2h-.2c-.1 0-.2-.1-.2-.2l.1-2.4zm1.2 1.1c.3 0 .5-.2.5-.4 0-.3-.2-.4-.5-.4h-.7v.8h.7z"/><path d="M76.1 136.7c-34.9 0-62.9-29.6-60.5-65 2.1-30.1 26.7-54.3 56.7-56.1 25.9-1.5 48.6 13.3 58.7 35.1.3.5.8.8 1.4.8H146c1.1 0 1.8-1.1 1.4-2C136.5 20.2 108.1-.5 74.8 0 34.7.7 1.6 33.1.1 73.1c-1.6 43.4 33 79.1 76.1 79.1 32.7 0 60.5-20.6 71.3-49.5.4-.9-.4-2-1.4-2h-13.6c-.6 0-1.1.3-1.4.8-9.7 20.8-30.7 35.2-55 35.2" fill="#e21d39"/><path class="st0" d="M49.7 56.4c5.4 0 9.4 1.7 13 5 .5.4.5 1.1.1 1.5l-4.2 4.4c-.4.4-.9.4-1.4 0-2-1.8-4.6-2.7-7.3-2.7-6.1 0-10.6 5.1-10.6 11.1S43.9 86.6 50 86.6c2.5 0 5.3-.9 7.2-2.6.4-.3 1.1-.3 1.4.1l4.2 4.5c.4.4.3 1.1-.1 1.5-3.7 3.6-8.3 5.2-13.1 5.2-10.8 0-19.5-8.6-19.5-19.3s8.8-19.6 19.6-19.6M69.2 58c0-.5.5-1 1-1h6.5c.5 0 1.1.5 1.1 1v35.7c0 .5-.5 1-1.1 1h-6.5c-.5 0-1-.5-1-1V58zM84.9 89.5l2.5-4.5c.4-.7 1.5-.6 1.8-.3.2.1 4.1 2.9 7.6 2.9 2.2 0 3.7-1.4 3.7-3.2 0-2.3-1.9-4-5.6-5.4-4.6-1.8-10.5-5.4-10.5-11.9 0-5.3 4.2-10.7 12.5-10.7 5.6 0 9.9 2.8 11.5 4.1.6.4.5 1.4.3 1.7l-2.7 4.2c-.4.6-1.4 1.1-1.8.7-.5-.3-4.4-3.3-7.7-3.3-1.9 0-3.4 1.3-3.4 2.7 0 2 1.6 3.5 5.9 5.2 4.2 1.7 10.9 4.9 10.9 12.3 0 5.6-4.8 11.2-12.7 11.2-7 0-10.9-2.9-12.2-4.2-.4-.6-.6-.8-.1-1.5M111.7 93.2 128.6 57c.2-.3.5-.6.9-.6h.5c.4 0 .7.3.9.6l16.9 36.2c.3.7-.1 1.4-.9 1.4h-6c-.9 0-1.4-.3-1.9-1.4l-2-4.2h-14.7l-1.9 4.3c-.3.6-.8 1.3-1.9 1.3h-5.9c-.8 0-1.2-.7-.9-1.4m22.2-11.5-4.1-8.9h-.1l-4.1 8.9h8.3z"/></svg>