<svg version="1.1" id="Layer_1" xmlns="http://www.w3.org/2000/svg" x="0" y="0" viewBox="0 0 155.1 152.2" width="155" height="152" xml:space="preserve"><style>.st0{fill:#1d2e5c}</style><path class="st0" d="M152.4 90.2c1.5 0 2.7 1.2 2.7 2.7s-1.2 2.7-2.7 2.7-2.7-1.2-2.7-2.7 1.2-2.7 2.7-2.7m0 4.9c1.3 0 2.3-1 2.3-2.3s-1-2.3-2.3-2.3-2.3 1-2.3 2.3c.1 1.3 1.1 2.3 2.3 2.3m-.9-3.4c0-.1.1-.2.2-.2h1.1c.5 0 .9.3.9.8s-.4.8-.6.8c.2.3.3.6.5.9.1.1 0 .2-.1.2h-.3c-.1 0-.1-.1-.2-.1l-.4-.9h-.6v.9c0 .1-.1.2-.2.2h-.2c-.1 0-.2-.1-.2-.2l.1-2.4zm1.1 1.1c.3 0 .5-.2.5-.4 0-.3-.2-.4-.5-.4h-.7v.8h.7z"/><path d="M76.1 136.7c-34.8 0-62.9-29.6-60.4-65 2.1-30.1 26.7-54.3 56.7-56.1 25.9-1.5 48.5 13.3 58.7 35.1.3.5.8.8 1.4.8H146c1.1 0 1.8-1.1 1.4-2C136.5 20.3 108-.5 74.8 0 34.7.7 1.6 33.1.1 73.1c-1.6 43.4 33.1 79.1 76 79.1 32.6 0 60.5-20.6 71.3-49.5.4-.9-.4-2-1.4-2h-13.6c-.6 0-1.1.3-1.4.8-9.6 20.8-30.6 35.2-54.9 35.2" fill="#6bb345"/><path class="st0" d="M43 56.8c5.4 0 9.4 1.7 13 5 .5.4.5 1.1.1 1.5l-4.2 4.4c-.4.4-.9.4-1.4 0-2-1.8-4.6-2.7-7.3-2.7-6.1 0-10.5 5-10.5 11.1S37.2 87 43.3 87c2.5 0 5.3-.9 7.2-2.6.4-.3 1.1-.3 1.4.1l4.2 4.5c.4.4.3 1.1-.1 1.5-3.7 3.6-8.3 5.2-13.1 5.2-10.8 0-19.4-8.6-19.4-19.3.1-10.9 8.8-19.6 19.5-19.6M61.8 58.4c0-.5.5-1 1-1h6.4c.5 0 1 .5 1 1V94c0 .5-.5 1-1 1h-6.4c-.5 0-1-.5-1-1V58.4zM76.6 89.9l2.5-4.5c.4-.7 1.5-.6 1.8-.3.2.1 4.1 2.9 7.7 2.9 2.2 0 3.7-1.4 3.7-3.2 0-2.3-1.9-4-5.6-5.5-4.6-1.8-10.4-5.5-10.4-11.9 0-5.3 4.2-10.7 12.4-10.7 5.6 0 9.9 2.8 11.5 4 .6.4.5 1.4.3 1.7l-2.7 4.2c-.4.6-1.4 1.1-1.8.7-.5-.3-4.4-3.2-7.7-3.2-1.9 0-3.4 1.3-3.4 2.7 0 2 1.6 3.5 5.9 5.2 4.2 1.7 10.9 4.9 10.9 12.3 0 5.6-4.8 11.1-12.7 11.1-7 0-10.9-2.9-12.1-4.2-.6-.2-.7-.5-.3-1.3M111.1 57.7c.1-.5.5-.8.9-.8h.8c.3 0 .7.2.9.5l12.5 23.2h.1l12.5-23.2c.2-.3.6-.5.9-.5h.8c.4 0 .9.4.9.8l6.1 36.2c.1.7-.4 1.2-1 1.2h-6.4c-.5 0-.9-.4-1-.8l-2.4-16.6-9 17.5c-.2.3-.6.6-.9.6h-.8c-.3 0-.7-.3-.9-.6L116 77.7l-2.4 16.6c-.1.4-.5.8-1 .8h-6.3c-.6 0-1.2-.5-1.1-1.2l5.9-36.2z"/></svg>