<svg id="Layer_1" data-name="Layer 1" xmlns="http://www.w3.org/2000/svg" version="1.1" viewBox="0 0 406.2 406.2"><defs/><g id="g930"><g id="g919"><path id="path4" class="cls-1" d="m100.3 180.3.2-.4-.5-.3a14 14 0 0 0-4.8-2.2c-1.7.3-3.4.8-4.9 1.7-.6-.9-1.2-1.7-2-2.5-.7-.7-1.5-1.4-2.4-1.9.8-1.5 1.4-3.1 1.7-4.8-.4-1.7-1.2-3.3-2.2-4.8a.7.7 0 0 0-.9-.2h-.2v.6a14 14 0 0 1 2 4.3c-.2 1.3-.7 2.5-1.3 3.7-.1-.4-.4-.8-.7-1.2-1.1-1-2.7-1-3.8 0a2 2 0 0 0-.7 1.3c-.7.2-1.3.6-1.7 1.1a6 6 0 0 0-.8 6.7 7.9 7.9 0 0 0-4.8 0l-2.5-3.8c.2-.9.4-3.4.5-4.8h-.2v-1.5h-.1s-.2 0-.3.3l-.3 1.2c-.4 1.8-.6 3.6-.8 5.4s.8 2.1 1.4 3.4l-1.4-.7-1.1-.6-.2-.5-1.7-5.2h-.2l-.4-.8c0-.6-.2-.6-.3-.6h-.2v1.6c.4 2.1.8 4.2 1.5 6.2v.4l.7.6-2.2-.6c-1-1.3-2.1-2.4-3.3-3.5l-.2.2-.8-.6-.3-.4s-.2 0 0 .5l.6.9 3.1 3.9 4.8 2.4s0 .3-.2.4c-4.8-1-12.3-2.4-20.4-3.3a100.5 100.5 0 0 0-30-.3h-.2l-.2.2v.7a53.7 53.7 0 0 0 16.5 9.9c7.6 2.1 11 1.7 12 1.5 1.4-.3 2.7-.8 3.8-1.7a11 11 0 0 1 5.3-2c1.3 0 7.7-.7 12.9-1.3.2 1 .6 1.9 1.2 2.7-4.6-2.4-9.9 2.4-17.2 9.8a96.5 96.5 0 0 0-15 24.9l-.6 1.4 1.4-.6c4.1-1.8 18-8.2 24.9-15.1 7.4-7.3 12-12.6 9.8-17.2l2.7 1.2-1.3 12.9c-.1 1.9-.8 3.7-1.9 5.3a8.7 8.7 0 0 0-1.7 3.8c-.3 4.1.2 8.1 1.5 12a61.1 61.1 0 0 0 8.7 15.5v.2l.9.8.5.2h.5c0-.1 0-.2.2-.3 1.1-2.7 1.5-16.8-.3-30-1.1-8.1-2.4-15.6-3.3-20.4.2 0 .3 0 .4-.2l2.4 4.8 3.9 3.1c.2.2.5.4.9.5h.3c.1 0 .3 0 .3-.2l-.2-.2-.6-.7.2-.2a47 47 0 0 0-3.5-3.3l-.7-2.1.6.7h.2c2.4.7 4.8 1.2 6.1 1.5h1.1c.3 0 .5 0 .5-.3s0-.2-.6-.3l-.8-.3v-.2c-1.1-.4-2.7-1-5.2-1.7l-.5-.2a3 3 0 0 0-.6-1.1l-.7-1.4 3.4 1.4c1.8-.1 3.6-.4 5.4-.8l1.2-.3c.3 0 .3-.2.3-.3h-1.6v-.2a26 26 0 0 0-4.8.5l-3.8-2.5c.5-1.6.5-3.2 0-4.8 2.2 1.1 4.8.8 6.7-.8.5-.5.9-1.1 1.1-1.8.5-.1.9-.3 1.3-.7 1-1 1.1-2.7 0-3.8-.3-.3-.7-.6-1.2-.7a9.8 9.8 0 0 1 3.7-1.4c1.5.4 3 1.1 4.3 2h2Z"/><path id="path6" class="cls-1" d="M62.4 140.9a62.2 62.2 0 1 0 62.1 62.4v-.2a62 62 0 0 0-62-62.1h-.1Zm0 114.7a52.7 52.7 0 1 1 52.6-52.7 52.6 52.6 0 0 1-52.7 52.7Z"/></g><g id="g915"><path id="path8" class="cls-1" d="M223.9 176.2v38c0 1.6.1 3.2.4 4.8a6 6 0 0 0 4.8 5.3c3.7.9 7.5.9 11.2 0a6.4 6.4 0 0 0 5.1-6.7v-41.3h6.2v40.6c0 2.1-.3 4.2-1 6.2-1 2.6-3 4.6-5.6 5.5-2.9 1-6 1.6-9.1 1.6-2.9.2-5.8-.2-8.5-1s-5.1-2.5-6.8-4.8c0-.1 0-.2-.2-.3-3.3 4.8-8.1 6.1-13.5 6.1a30 30 0 0 1-10.3-1.2 10.3 10.3 0 0 1-7.4-9.1 42 42 0 0 1-.3-5v-38.6h6.4v39.2c0 1 0 2 .2 3 0 3.2 2.5 5.8 5.7 6.1 3.3.7 6.6.7 9.9 0a6.6 6.6 0 0 0 5.8-7.2v-40.1q0-1 1-1h6Z"/><path id="path10" class="cls-1" d="M313.7 211.6h6.3v.9c0 2.1 0 4 .2 6.1.2 2.7 2.1 5 4.8 5.6 2.1.5 4.2.8 6.3 1a33.4 33.4 0 0 0 12.5-1.1 5.9 5.9 0 0 0 4.4-5.4 56 56 0 0 0 0-5.8c0-2.7-2.1-5.1-4.8-5.6-2.4-.6-5-1-7.5-1.4l-13-2.1c-2-.4-3.8-1.2-5.5-2.4a8.9 8.9 0 0 1-3.7-6.8c-.2-2.7-.2-5.4 0-8.1.1-4.2 3-7.8 7-8.9 3-1 6.2-1.5 9.4-1.7 4-.3 8.1-.1 12.1.4 2.1.3 4.2.8 6.2 1.7 2.9 1.2 5 3.8 5.7 6.8.4 2.4.6 4.8.5 7.2h-6.1v-2.4c0-1 0-2-.3-3-.3-2-1.6-3.8-3.5-4.5a36.3 36.3 0 0 0-18.5-.6l-1.7.5a5.6 5.6 0 0 0-3.9 5.1c-.2 2.2-.2 4.3 0 6.5a5 5 0 0 0 3.8 4.6c2.2.6 4.4.9 6.7 1.3l14.5 2.4c1.9.4 3.8 1.2 5.4 2.4a9.3 9.3 0 0 1 3.9 6.9 37 37 0 0 1-.2 9.4 9.6 9.6 0 0 1-6.6 7.9c-2.8 1-5.8 1.6-8.8 1.7-4.1.3-8.3.2-12.4-.3-2.4-.2-4.7-.8-6.8-1.8a9.7 9.7 0 0 1-5.7-7.3 47 47 0 0 1-.5-9.2Z"/><path id="path58" class="cls-1" d="M303.6 229.6v-39.4c0-1.2 0-2.4-.2-3.6 0-4.2-2.8-7.8-6.8-9.1a53.9 53.9 0 0 0-26.1-.3 9.4 9.4 0 0 0-7.3 7.3 26 26 0 0 0-.5 4.8v40.4h6.4V210h28.4v19.7h6.2Zm-6.5-26.3v.9h-28.4v-15c0-.9 0-1.8.3-2.8.4-2.2 2-4 4.2-4.6a41.5 41.5 0 0 1 17.7-.4l1.7.5a6 6 0 0 1 4.2 5.6l.2 3.2c.2 4.1 0 8.3 0 12.5h.1Z"/><path id="path60" class="cls-1" d="M179 203v-15.6a9.7 9.7 0 0 0-6.1-9.4c-1.1-.6-2.3-1-3.5-1.4a55 55 0 0 0-24.6.7 9.3 9.3 0 0 0-6.6 7.2 26 26 0 0 0-.5 4.8v25.9c0 1.3 0 2.6.2 3.9 0 4.2 2.8 7.9 6.8 9.2a37 37 0 0 0 5.5 1.4c4.7.6 9.4.7 14.1.3a28 28 0 0 0 8-1.7 9.6 9.6 0 0 0 6.6-7.8c.2-1.5.4-3 .4-4.5l-.2-13.2v.2Zm-6.4 12.8c0 1 0 2-.2 2.9a6 6 0 0 1-4 5.1c-2.1.8-4.4 1.2-6.6 1.3-3.7.3-7.5.1-11.1-.5h-.1c-4-.4-6.9-3.9-6.5-7.8v-26.3c0-1 0-2.1.3-3.1a6 6 0 0 1 4.1-5c2.2-.8 4.6-1.2 6.9-1.3a46 46 0 0 1 11.1.6l1.2.3c3 .6 5.2 3.4 5.1 6.5l.1 4.6v10.1c-.2 4.2-.2 8.4-.2 12.7Z"/><path id="path62" class="cls-1" d="M406 187.7a11 11 0 0 0-8.1-10.3c-2.8-.8-5.6-1.2-8.5-1.2h-24.3v53.3h6.3v-15.3h17a33 33 0 0 0 7.7-.8c5.5-.8 9.6-5.5 9.8-11 .3-4.9.3-9.9 0-14.8Zm-6.5 14.2a7.8 7.8 0 0 1-7.2 7l-3.1.3h-17.7v-27.8h17c1.7 0 3.3.2 5 .5 3.4.6 6 3.5 6.2 7 .2 3 .2 6.1.2 9 0 1.3-.1 2.7-.4 4Z"/></g></g></svg>